<svg xmlns="http://www.w3.org/2000/svg" xmlns:xlink="http://www.w3.org/1999/xlink" id="Layer_4" x="0px" y="0px" width="195.6px" height="55.8px" viewBox="0 0 195.6 55.8" style="enable-background:new 0 0 195.6 55.8;" xml:space="preserve"><script xmlns=""/> <style type="text/css"> .st0{fill:#4C4B4C;} .st1{fill:#7DC246;} .st2{display:none;fill:#4C4B4C;} </style> <g> <g> <g> <path class="st0" d="M80.9,32.3l1.2-1.2c0.3-0.2,0.5-0.2,0.7,0c0.3,0.3,0.8,0.7,1.5,0.7c0.9,0,1.8-0.7,1.8-2.3V18.6 c0-0.2,0.2-0.4,0.4-0.4h2.2c0.3,0,0.4,0.2,0.4,0.4v10.8c0,3.2-2.1,5-4.8,5c-2,0-3.1-1.2-3.5-1.7C80.7,32.7,80.8,32.4,80.9,32.3z"/> <path class="st0" d="M104.5,18c4.6,0,8.3,3.7,8.3,8.3c0,4.6-3.7,8.2-8.3,8.2c-4.6,0-8.2-3.7-8.2-8.2C96.3,21.7,100,18,104.5,18z M104.5,31.5c2.9,0,5.3-2.4,5.3-5.3s-2.4-5.3-5.3-5.3c-2.9,0-5.3,2.4-5.3,5.3S101.7,31.5,104.5,31.5z"/> <path class="st0" d="M120.2,18.6c0-0.2,0.2-0.4,0.4-0.4h5.3c2.7,0,4.8,1.8,4.8,4.3c0,1.8-1.4,3.1-2.5,3.7c1.2,0.4,3,1.6,3,3.7 c0,2.6-2.2,4.4-5,4.4h-5.6c-0.3,0-0.4-0.2-0.4-0.4V18.6z M125.7,25c1.2,0,2-0.9,2-2.1c0-1.1-0.8-2-2-2h-2.5v4H125.7z M126,31.6 c1.1,0,2.1-0.9,2.1-2.1c0-1.1-1.1-2-2.3-2h-2.5v4.1H126z"/> <path class="st0" d="M138.9,18.6c0-0.2,0.2-0.4,0.4-0.4h2.1c0.2,0,0.4,0.2,0.4,0.4v15.2c0,0.2-0.2,0.4-0.4,0.4h-2.1 c-0.2,0-0.4-0.2-0.4-0.4V18.6z"/> <path class="st0" d="M150.3,18.6c0-0.2,0.2-0.4,0.4-0.4h9.4c0.3,0,0.4,0.2,0.4,0.4v1.9c0,0.2-0.2,0.4-0.4,0.4h-6.8v4.3h5.7 c0.2,0,0.4,0.2,0.4,0.4v1.9c0,0.2-0.2,0.4-0.4,0.4h-5.7v5.8c0,0.2-0.2,0.4-0.4,0.4h-2.1c-0.3,0-0.4-0.2-0.4-0.4V18.6z"/> <path class="st0" d="M171.6,26.6l-5.2-7.7c-0.2-0.3,0-0.7,0.4-0.7h2.3c0.2,0,0.3,0.1,0.4,0.2l3.7,5.3l3.7-5.3 c0.1-0.1,0.2-0.2,0.4-0.2h2.4c0.4,0,0.6,0.4,0.4,0.7l-5.3,7.7v7.3c0,0.2-0.2,0.4-0.4,0.4H172c-0.3,0-0.4-0.2-0.4-0.4V26.6z"/> </g>  <polygon class="st1" points="38.7,53.5 5.4,20.2 23.8,1.7 38.7,16.7 53.7,1.7 72.1,20.2 53.6,38.7 50,35 64.8,20.2 53.7,9.1 38.7,24 23.8,9.1 12.7,20.2 42.3,49.9 "/> </g> <rect x="111.7" y="41.5" class="st2" width="11.2" height="1.1"/> </g> </svg>